<?xml version="1.0" encoding="utf-8"?>
<!-- Generator: Adobe Illustrator 24.1.0, SVG Export Plug-In . SVG Version: 6.00 Build 0)  -->
<svg version="1.1" id="Capa_1" xmlns="http://www.w3.org/2000/svg" xmlns:xlink="http://www.w3.org/1999/xlink" x="0px" y="0px"
	 viewBox="0 0 85.04 42.52" style="enable-background:new 0 0 85.04 42.52;" xml:space="preserve">
<style type="text/css">
	.st0{fill:#FFFFFF;}
</style>
<g>
	<path class="st0" d="M27.38,19.29c-0.47,0-0.96,0.35-1.24,0.87l-0.02,0.01c-0.09-0.47-0.31-0.82-0.78-0.82
		c-0.11,0-0.22,0.02-0.35,0.06c-0.39,0.12-0.96,0.42-0.75,0.95c0.54-0.11,0.74,0.08,0.74,0.55v2.26c0,0.45-0.06,0.64-0.21,0.77
		c-0.15,0.11-0.3,0.16-0.4,0.18c-0.22,0.49,0.21,0.64,1.29,0.64c1.08,0,1.45-0.15,1.22-0.64c-0.1-0.02-0.37-0.07-0.51-0.18
		c-0.16-0.13-0.22-0.32-0.22-0.77v-1.36c0-1.22,0.45-1.54,0.74-1.59c0.03,0.33,0.31,0.56,0.64,0.56c0.42,0,0.67-0.37,0.67-0.73
		C28.2,19.55,27.79,19.29,27.38,19.29z"/>
	<path class="st0" d="M33.26,21.31c0-0.93-0.68-2.01-2.16-2.01c-1.62,0-2.72,1.19-2.72,2.87c0,1.52,1.19,2.68,2.64,2.68
		c1.45,0,2.07-0.71,2.07-1.23c0-0.23-0.09-0.33-0.18-0.39c-0.19,0.23-0.71,0.61-1.4,0.61c-1.14,0-1.8-0.75-1.83-1.78h3.39
		C33.2,21.84,33.26,21.59,33.26,21.31z M31.75,21.38H29.7c0.03-0.66,0.36-1.37,1.21-1.37c0.65,0,1.08,0.51,1.09,1.05
		C32,21.24,31.99,21.38,31.75,21.38z"/>
	<path class="st0" d="M18.62,23.51v-1.97c0-0.76-0.02-1.28-0.29-1.62c-0.3-0.39-0.87-0.61-1.82-0.61c-1.19,0-2.04,0.49-2.04,1.17
		c0,0.37,0.27,0.66,0.63,0.66c0.41,0,0.65-0.31,0.65-0.69c0-0.1-0.02-0.2-0.05-0.3c0.25-0.1,0.57-0.14,0.72-0.14
		c0.71,0,0.98,0.4,0.98,1.02v0.7c-0.27-0.14-0.73-0.23-1.17-0.23c-1.27,0-2.18,0.62-2.18,1.66c0,0.98,0.81,1.71,1.88,1.71
		c0.79,0,1.39-0.47,1.59-0.66c0.17,0.47,0.61,0.67,1.06,0.64c0.4-0.04,0.74-0.23,0.77-0.71C18.89,24.06,18.62,23.93,18.62,23.51z
		 M17.41,23.47C17.16,23.78,16.77,24,16.39,24c-0.58,0-0.97-0.39-0.97-0.94c0-0.59,0.45-0.9,1.06-0.9c0.59,0,0.93,0.26,0.93,0.53
		V23.47z"/>
	<path class="st0" d="M22.96,19.29c-0.47,0-0.96,0.35-1.24,0.87l-0.02,0.01c-0.09-0.47-0.31-0.82-0.78-0.82
		c-0.11,0-0.22,0.02-0.35,0.06c-0.39,0.12-0.96,0.42-0.75,0.95c0.54-0.11,0.74,0.08,0.74,0.55v2.26c0,0.45-0.06,0.64-0.21,0.77
		c-0.15,0.11-0.3,0.16-0.4,0.18c-0.22,0.49,0.21,0.64,1.29,0.64c1.08,0,1.45-0.15,1.22-0.64c-0.1-0.02-0.37-0.07-0.51-0.18
		c-0.16-0.13-0.22-0.32-0.22-0.77v-1.36c0-1.22,0.45-1.54,0.74-1.59c0.03,0.33,0.31,0.56,0.64,0.56c0.42,0,0.67-0.37,0.67-0.73
		C23.78,19.55,23.37,19.29,22.96,19.29z"/>
	<path class="st0" d="M53.24,19.29c-0.47,0-0.95,0.35-1.24,0.87l-0.03,0.01c-0.08-0.47-0.31-0.82-0.77-0.82
		c-0.11,0-0.22,0.02-0.36,0.06c-0.38,0.12-0.95,0.42-0.75,0.95c0.55-0.11,0.74,0.08,0.74,0.55v2.26c0,0.45-0.06,0.64-0.22,0.77
		c-0.14,0.11-0.3,0.16-0.39,0.18c-0.22,0.49,0.22,0.64,1.29,0.64c1.08,0,1.44-0.15,1.22-0.64c-0.09-0.02-0.36-0.07-0.52-0.18
		c-0.15-0.13-0.21-0.32-0.21-0.77v-1.36c0-1.22,0.44-1.54,0.73-1.59c0.03,0.33,0.32,0.56,0.65,0.56c0.41,0,0.66-0.37,0.66-0.73
		C54.06,19.55,53.65,19.29,53.24,19.29z"/>
	<path class="st0" d="M40.29,19.3c-1.46,0-2.75,1.12-2.75,2.76c0,1.66,1.21,2.78,2.7,2.78c1.57,0,2.76-1.13,2.76-2.78
		C43,20.42,41.87,19.3,40.29,19.3z M40.3,24.09c-0.68,0-1.34-0.69-1.34-2.18c0-1.17,0.48-1.89,1.28-1.89c0.79,0,1.37,0.81,1.37,2.13
		C41.61,23.4,41.07,24.09,40.3,24.09z"/>
	<path class="st0" d="M37.75,18.64c0.45,0,0.66-0.38,0.66-0.69c0-0.72-0.83-1.19-1.84-1.19c-0.81,0-1.32,0.32-1.62,0.79
		c-0.2,0.29-0.34,0.73-0.34,1.52v0.39h-0.41c-0.33,0-0.55,0.28-0.39,0.68l0.82,0.03v3.03c0,0.45-0.06,0.64-0.21,0.77
		c-0.15,0.11-0.3,0.16-0.4,0.18c-0.22,0.49,0.22,0.64,1.3,0.64c1.08,0,1.6-0.15,1.38-0.64c-0.1-0.02-0.44-0.07-0.58-0.18
		c-0.16-0.13-0.23-0.32-0.23-0.77v-3c0.18,0,0.43,0.02,0.68,0.02c0.1,0,0.2,0,0.3-0.01c0.31-0.03,0.53-0.35,0.37-0.75h-1.39v-0.91
		c0-0.62,0.14-1.12,0.82-1.12c0.23,0,0.48,0.07,0.59,0.2c-0.08,0.1-0.14,0.25-0.14,0.4C37.11,18.36,37.42,18.64,37.75,18.64z"/>
	<path class="st0" d="M48.85,23.28c0-0.1,0.01-0.43,0.01-1.04c0-1.45,0.02-1.81,0.02-2c0-0.52-0.22-0.88-0.78-0.88
		c-0.11,0-0.23,0.02-0.35,0.04c-0.4,0.08-1.11,0.42-0.89,0.95c0.51-0.06,0.74,0.13,0.74,0.6v1.38c0,0.72-0.24,1.52-1.14,1.52
		c-0.82,0-0.99-0.65-0.99-1.91l0.01-1.71c0-0.52-0.21-0.88-0.78-0.88c-0.11,0-0.22,0.02-0.35,0.04c-0.4,0.08-1.11,0.42-0.89,0.95
		c0.52-0.06,0.74,0.13,0.74,0.6v1c0,1.04,0,1.75,0.47,2.31c0.3,0.36,0.78,0.57,1.34,0.57c0.52,0,0.97-0.2,1.32-0.52
		c0.15-0.14,0.22-0.22,0.29-0.31c0.11,0.5,0.22,0.84,0.75,0.84c0.09,0,0.2-0.02,0.33-0.04c0.4-0.07,1.11-0.33,0.9-0.86
		C49.07,24.01,48.85,23.76,48.85,23.28z"/>
	<path class="st0" d="M12.46,21.87c-0.43,0-0.79,0.29-0.79,0.79c0,0.32,0.17,0.5,0.3,0.64c-0.22,0.43-0.7,0.79-1.44,0.79
		c-1.22,0-2.11-1.27-2.11-3.11c0-1.83,0.85-3.12,2.07-3.12c0.74,0,1.21,0.36,1.44,0.79c-0.13,0.15-0.3,0.32-0.3,0.64
		c0,0.5,0.36,0.79,0.79,0.79c0.42,0,0.74-0.38,0.74-0.89c0-0.96-1.16-2.13-2.81-2.13c-1.84,0-3.49,1.59-3.49,3.94
		c0,2.45,1.69,3.9,3.53,3.9c1.65,0,2.81-1.16,2.81-2.13C13.2,22.25,12.88,21.87,12.46,21.87z"/>
	<path class="st0" d="M65.26,15.5c0-0.05-0.03-0.1-0.08-0.1l-0.09,0.05l-5.14,4.97c-0.26,0.22-0.42,0.47-0.42,0.84
		c0,0.36,0.16,0.62,0.42,0.84l5.14,4.97l0.09,0.05c0.05,0,0.08-0.05,0.08-0.1l-0.04-0.1c-1.21-1.5-2.08-3.22-2.08-5.65
		c0-2.43,0.88-4.18,2.08-5.68L65.26,15.5z"/>
	<path class="st0" d="M77.91,20.42l-5.14-4.97l-0.09-0.05c-0.05,0-0.08,0.04-0.08,0.09l0.03,0.08c0.46,0.66,0.88,1.48,0.88,2.47
		c0,1.04-0.6,1.85-1.63,1.85c-0.74,0-1.55-0.69-1.55-1.62c0-0.49,0.22-1.04,0.8-1.59c0.11-0.11,0.16-0.23,0.16-0.36
		c0-0.58-1.03-1.29-2.24-1.29c-2.01,0-2.8,2.85-2.8,6.25c0,3.4,0.79,6.21,2.8,6.21c1.21,0,2.24-0.71,2.24-1.29
		c0-0.13-0.05-0.25-0.16-0.36c-0.57-0.55-0.8-1.11-0.8-1.59c0-0.93,0.8-1.62,1.55-1.62c1.02,0,1.63,0.8,1.63,1.85
		c0,0.99-0.42,1.81-0.88,2.47l-0.03,0.08c0,0.05,0.03,0.09,0.08,0.09l0.09-0.05l5.14-4.97c0.26-0.22,0.42-0.48,0.42-0.84
		C78.33,20.89,78.16,20.64,77.91,20.42z"/>
</g>
</svg>
