<?xml version="1.0" encoding="utf-8"?>
<!-- Generator: Adobe Illustrator 24.1.0, SVG Export Plug-In . SVG Version: 6.00 Build 0)  -->
<svg version="1.1" id="Capa_1" xmlns="http://www.w3.org/2000/svg" xmlns:xlink="http://www.w3.org/1999/xlink" x="0px" y="0px"
	 viewBox="0 0 85.04 42.52" style="enable-background:new 0 0 85.04 42.52;" xml:space="preserve">
<style type="text/css">
	.st0{fill-rule:evenodd;clip-rule:evenodd;fill:#FFFFFF;}
</style>
<g>
	<path class="st0" d="M73.87,15.02c-0.39,1.41-1.68,2.43-3.22,2.42c-0.48-0.01-0.94-0.11-1.35-0.29c0.19,1.26,1.27,2.23,2.58,2.25
		c1.45,0.02,2.64-1.15,2.66-2.6C74.56,16.1,74.29,15.48,73.87,15.02z"/>
	<path class="st0" d="M69.28,16.74c0.02-1.44,1.2-2.61,2.66-2.6c0.77,0.01,1.46,0.35,1.94,0.87c0.08-0.28,0.12-0.56,0.12-0.86
		c0.02-1.82-1.46-3.32-3.29-3.32c-1.84-0.01-3.33,1.46-3.35,3.28c-0.01,1.35,0.79,2.5,1.95,3.03
		C69.29,17.01,69.28,16.87,69.28,16.74L69.28,16.74z"/>
	<path class="st0" d="M18.97,17.16c-1.54-0.01-2.66,0.45-3.39,1.39c-0.71,0.94-1.07,2.2-1.09,3.79c-0.01,0.8,0.09,1.52,0.28,2.12
		c0.19,0.61,0.43,1.11,0.73,1.44c0.05,0.05,0.1,0.11,0.15,0.16h-0.01c0.77,0.84,1.93,1.27,3.48,1.27c0.65,0.01,1.35-0.11,2.09-0.33
		c0.74-0.22,1.11-0.53,1.11-0.92c0-0.2-0.11-0.48-0.32-0.83c-0.22-0.35-0.42-0.53-0.6-0.53c-0.02,0-0.26,0.09-0.75,0.27
		c-0.49,0.19-1.22,0.28-1.76,0.28c-0.49-0.01-0.95-0.2-1.28-0.42c-0.45-0.29-0.7-0.86-0.76-1.72c-0.02-0.66,0-0.66,0.02-1.64
		c0-0.01,0-0.02,0-0.02c0.02-0.22,0.03-0.36,0.03-0.36c0.09-0.66,0.29-1.14,0.57-1.46c0.34-0.37,0.8-0.56,1.4-0.56
		c0.6,0.01,1.06,0.24,1.4,0.71c0.33,0.46,0.53,1.07,0.6,1.75c-0.42,0.02-0.77,0.04-0.88,0.05c-0.49,0.03-0.97,0.05-1.48,0.09
		c-0.09,0.01-0.17,0.02-0.26,0.02c-0.04,0.01-0.08,0.01-0.12,0.02c-0.22,0.02-0.39,0.2-0.4,0.41c-0.02,0.27,0.15,0.49,0.41,0.55
		c0.02,0.01,0.04,0.01,0.07,0.01c0.43,0.04,0.86,0.07,1.31,0.1c0.55,0.04,2.33,0.09,2.87,0.13l0.92-1.52c0-1.31-0.34-1.95-1.07-2.87
		C21.52,17.64,20.42,17.17,18.97,17.16z"/>
	<path class="st0" d="M37.8,17.3c-1.54-0.02-2.67,0.45-3.39,1.39c-0.71,0.94-1.08,2.2-1.09,3.79c-0.01,0.8,0.09,1.52,0.28,2.12
		c0.19,0.62,0.43,1.11,0.73,1.44c0.05,0.05,0.1,0.11,0.15,0.16h-0.01c0.77,0.84,1.93,1.27,3.49,1.27c0.65,0.01,1.35-0.11,2.09-0.33
		c0.74-0.22,1.11-0.53,1.11-0.92c0-0.2-0.11-0.48-0.32-0.83c-0.22-0.35-0.42-0.53-0.6-0.53c-0.02,0-0.26,0.09-0.75,0.27
		c-0.49,0.19-1.22,0.28-1.76,0.28c-0.49-0.01-0.95-0.2-1.29-0.42c-0.45-0.29-0.7-0.86-0.76-1.72c-0.02-0.66,0-0.66,0.02-1.64
		c0-0.01,0-0.02,0-0.03c0.02-0.22,0.03-0.36,0.03-0.36c0.09-0.66,0.29-1.14,0.57-1.46c0.34-0.37,0.8-0.56,1.4-0.56
		c0.6,0.01,1.06,0.24,1.4,0.71c0.34,0.46,0.53,1.07,0.6,1.75c-0.42,0.02-0.76,0.04-0.88,0.05c-0.49,0.03-0.97,0.05-1.48,0.09
		c-0.09,0.01-0.17,0.02-0.26,0.02c-0.04,0.01-0.08,0.01-0.12,0.02c-0.22,0.02-0.39,0.19-0.4,0.41c-0.02,0.27,0.15,0.49,0.41,0.55
		c0.02,0.01,0.05,0.01,0.07,0.01c0.43,0.04,0.86,0.07,1.31,0.1c0.55,0.04,2.33,0.09,2.87,0.13l0.92-1.52c0-1.31-0.34-1.95-1.07-2.87
		C40.36,17.77,39.26,17.31,37.8,17.3z"/>
	<path class="st0" d="M47.45,17.37c-1.59-0.02-3.12,0.34-4.59,1.05l-0.04,5.4l-0.03,3.73l1.03,0.01c0,0,1.37,0.04,1.38-1.27
		c0-0.44,0.01-0.97,0.01-1.32l0.01-1.12l0.03-4.21c0.65-0.12,1.27-0.16,1.85-0.16c0.53,0.01,0.94,0.05,1.27,0.15
		c0.33,0.1,0.56,0.25,0.71,0.45s0.24,0.38,0.29,0.56c0.05,0.18,0.07,0.4,0.07,0.66l-0.02,2.58L49.4,27.6l1.03,0.01
		c0,0,1.37,0.04,1.38-1.27c0-0.23,0.01-0.46,0.01-0.67l0.02-1.77l0.02-2.37c0.01-1.3-0.37-2.32-1.15-3.04
		C49.93,17.74,48.84,17.37,47.45,17.37z"/>
	<path class="st0" d="M57.31,17.46c-1.52-0.02-2.69,0.42-3.51,1.29s-1.24,2.13-1.25,3.78c-0.02,1.65,0.38,2.91,1.19,3.8
		c0.8,0.89,1.97,1.34,3.48,1.35c1.52,0.02,2.69-0.43,3.51-1.3c0.82-0.87,1.24-2.13,1.25-3.78c0.02-1.65-0.39-2.91-1.19-3.8
		C59.99,17.91,58.83,17.47,57.31,17.46z M59.01,25.08c-0.38,0.43-0.97,0.64-1.75,0.63c-0.79-0.01-1.37-0.22-1.75-0.66
		c-0.37-0.43-0.56-1.27-0.55-2.5c0.01-1.24,0.2-2.07,0.59-2.5c0.38-0.43,0.97-0.64,1.76-0.64c0.79,0.01,1.37,0.22,1.75,0.66
		c0.37,0.44,0.56,1.27,0.55,2.5C59.58,23.82,59.39,24.65,59.01,25.08z"/>
	<path class="st0" d="M65.11,17.82c-0.86,0.19-1.44,0.33-1.73,0.44c-0.29,0.11-0.52,0.19-0.68,0.27l-0.04,5.45l-0.03,3.73h1.03
		c0,0,1.37,0.04,1.38-1.27c0-0.24,0.01-0.6,0.01-0.81l0.02-1.63l0.03-4.11c0.71-0.2,1.58-0.3,2.58-0.31l-0.02-2.05
		C66.81,17.52,65.97,17.62,65.11,17.82z"/>
	<path class="st0" d="M31.28,13.58l-1.03-0.01l-0.02,3.82c-0.57-0.11-1.12-0.16-1.66-0.16c-1.49-0.02-2.64,0.41-3.43,1.27
		c-0.79,0.86-1.2,2.09-1.22,3.71c-0.01,0.89,0.1,1.68,0.32,2.35c0.22,0.68,0.49,1.19,0.82,1.55c0.33,0.36,0.7,0.64,1.14,0.86
		c0.44,0.22,0.82,0.36,1.15,0.42c0.32,0.05,0.66,0.09,0.99,0.09c1.43,0.02,2.49-0.31,3.18-0.97s1.05-1.44,1.06-2.35l0.04-5.53
		l0.02-3.55c0-0.07,0-0.13,0-0.2C32.65,13.56,31.28,13.58,31.28,13.58z M30.16,24.36c-0.01,0.71-0.61,1.07-1.82,1.06
		c-0.77-0.01-1.29-0.27-1.6-0.79c-0.3-0.53-0.45-1.37-0.44-2.53c0.01-1.11,0.21-1.9,0.6-2.34c0.39-0.45,0.97-0.66,1.72-0.66
		c0.59,0.01,1.11,0.07,1.58,0.18L30.16,24.36z"/>
</g>
</svg>
