<?xml version="1.0" encoding="utf-8"?>
<!-- Generator: Adobe Illustrator 24.1.0, SVG Export Plug-In . SVG Version: 6.00 Build 0)  -->
<svg version="1.1" id="Capa_1" xmlns="http://www.w3.org/2000/svg" xmlns:xlink="http://www.w3.org/1999/xlink" x="0px" y="0px"
	 viewBox="0 0 85.04 42.52" style="enable-background:new 0 0 85.04 42.52;" xml:space="preserve">
<style type="text/css">
	.st0{fill:#FFFFFF;}
</style>
<g>
	<path class="st0" d="M38.24,23.77c0,2.81-2.2,4.88-4.89,4.88c-2.7,0-4.89-2.07-4.89-4.88c0-2.83,2.2-4.88,4.89-4.88
		C36.05,18.89,38.24,20.95,38.24,23.77z M36.11,23.77c0-1.75-1.27-2.96-2.75-2.96c-1.47,0-2.75,1.2-2.75,2.96
		c0,1.73,1.27,2.96,2.75,2.96S36.11,25.5,36.11,23.77z"/>
	<path class="st0" d="M48.8,23.77c0,2.81-2.2,4.88-4.89,4.88c-2.7,0-4.89-2.07-4.89-4.88c0-2.82,2.2-4.88,4.89-4.88
		C46.6,18.89,48.8,20.95,48.8,23.77z M46.66,23.77c0-1.75-1.27-2.96-2.75-2.96c-1.47,0-2.75,1.2-2.75,2.96
		c0,1.73,1.27,2.96,2.75,2.96C45.38,26.73,46.66,25.5,46.66,23.77z"/>
	<path class="st0" d="M58.92,19.19v8.75c0,3.6-2.13,5.08-4.63,5.08c-2.36,0-3.78-1.58-4.32-2.87l1.86-0.77
		c0.34,0.8,1.15,1.73,2.46,1.73c1.61,0,2.6-0.99,2.6-2.86v-0.71H56.8c-0.48,0.6-1.4,1.11-2.56,1.11c-2.44,0-4.67-2.13-4.67-4.86
		c0-2.75,2.23-4.89,4.67-4.89c1.17,0,2.08,0.52,2.56,1.09h0.08v-0.8L58.92,19.19L58.92,19.19z M57.03,23.79
		c0-1.71-1.15-2.97-2.6-2.97c-1.47,0-2.72,1.25-2.72,2.97c0,1.7,1.24,2.94,2.72,2.94C55.89,26.73,57.03,25.48,57.03,23.79z"/>
	<rect x="60.18" y="14.05" class="st0" width="2.09" height="14.29"/>
	<path class="st0" d="M70.4,25.37l1.66,1.11c-0.54,0.8-1.83,2.16-4.06,2.16c-2.76,0-4.83-2.14-4.83-4.88c0-2.9,2.08-4.88,4.6-4.88
		c2.53,0,3.78,2.01,4.18,3.1l0.22,0.55l-6.52,2.7c0.5,0.97,1.27,1.47,2.36,1.47C69.09,26.73,69.85,26.19,70.4,25.37L70.4,25.37z
		 M65.29,23.63l4.35-1.81c-0.24-0.61-0.96-1.03-1.81-1.03C66.75,20.78,65.23,21.74,65.29,23.63z"/>
	<path class="st0" d="M20.56,22.5v-2.07h6.97c0.07,0.37,0.11,0.79,0.11,1.25c0,1.55-0.42,3.47-1.79,4.83
		c-1.33,1.39-3.03,2.13-5.29,2.13c-4.18,0-7.68-3.4-7.68-7.57s3.51-7.57,7.68-7.57c2.31,0,3.95,0.91,5.19,2.08l-1.45,1.45
		c-0.89-0.83-2.08-1.47-3.73-1.47c-3.04,0-5.43,2.46-5.43,5.5s2.39,5.5,5.43,5.5c1.98,0,3.1-0.8,3.82-1.51
		c0.59-0.59,0.97-1.43,1.13-2.56L20.56,22.5z"/>
</g>
</svg>
