<?xml version="1.0" encoding="utf-8"?>
<!-- Generator: Adobe Illustrator 24.1.0, SVG Export Plug-In . SVG Version: 6.00 Build 0)  -->
<svg version="1.1" id="Capa_1" xmlns="http://www.w3.org/2000/svg" xmlns:xlink="http://www.w3.org/1999/xlink" x="0px" y="0px"
	 viewBox="0 0 122.67 122.35" style="enable-background:new 0 0 122.67 122.35;" xml:space="preserve">
<style type="text/css">
	.st0{fill:#FFDD00;}
	.st1{fill:#3D3D3B;}
</style>
<g>
	<g>
		<g>
			<path class="st0" d="M85.89,122.35H31.97V0.16h52.1c17.76,0,36.43,10.15,36.43,29.72c0,16.13-11.96,26.28-22.84,28.63
				c10.7,1.99,25.01,9.61,25.01,27.91C122.67,106.54,105.28,122.35,85.89,122.35z M68.66,27.51H64.5v20.38h4.17
				c7.61,0,12.87-2.66,12.87-10.05S75.56,27.51,68.66,27.51z M70.48,72.59H64.5v22.19h5.98c6.88,0,12.51-3.78,12.51-11.7
				C82.99,75.68,77.36,72.59,70.48,72.59z"/>
			<g>
				<path class="st1" d="M0,122.35V0h64.53v27.51H36.87v20.37h27.7v24.7h-27.7v22.24h27.66v27.51H0V122.35z"/>
			</g>
		</g>
	</g>
</g>
<rect x="-165.24" y="-83.85" class="st0" width="52.48" height="52.48"/>
</svg>
