<?xml version="1.0" encoding="utf-8"?>
<!-- Generator: Adobe Illustrator 24.1.0, SVG Export Plug-In . SVG Version: 6.00 Build 0)  -->
<svg version="1.1" id="Capa_1" xmlns="http://www.w3.org/2000/svg" xmlns:xlink="http://www.w3.org/1999/xlink" x="0px" y="0px"
	 viewBox="0 0 85.04 42.52" style="enable-background:new 0 0 85.04 42.52;" xml:space="preserve">
<style type="text/css">
	.st0{fill:#FFFFFF;}
</style>
<g>
	<path class="st0" d="M33.08,31.61v5.88h1.27v-6.69h-0.33C33.49,30.79,33.08,31.41,33.08,31.61z"/>
	<path class="st0" d="M40.94,32.27c-0.62,0-1.1,0.26-1.43,0.79v-2.27h-0.14c-0.62,0-0.96,0.33-1.12,0.62v3.8
		c0,1.5,0.79,2.27,2.37,2.27c1.58-0.02,2.34-0.88,2.34-2.56C42.95,33.18,42.28,32.32,40.94,32.27z M40.56,36.38
		c-0.72,0-1.08-0.53-1.05-1.53c0.05-0.98,0.38-1.46,1.08-1.46c0.69,0,1.03,0.48,1.08,1.46C41.66,35.88,41.28,36.38,40.56,36.38z"/>
	<path class="st0" d="M43.69,34.86v2.6h1.29v-2.63c0-0.74,0.31-1.2,1.03-1.2h0.6v-1.31h-0.38C44.53,32.32,43.74,33.23,43.69,34.86z"
		/>
	<path class="st0" d="M51.72,34.11c-0.1-0.36-0.24-0.67-0.43-0.93c-0.19-0.26-0.45-0.48-0.76-0.64c-0.31-0.17-0.69-0.24-1.1-0.24
		c-0.38,0-0.72,0.05-1.03,0.19c-0.31,0.14-0.57,0.31-0.79,0.55c-0.22,0.21-0.38,0.5-0.5,0.81c-0.12,0.31-0.19,0.67-0.19,1.03
		c0,0.38,0.05,0.74,0.17,1.05s0.29,0.57,0.5,0.81c0.22,0.21,0.48,0.41,0.79,0.53c0.31,0.12,0.67,0.19,1.05,0.19
		c0.57,0,1.03-0.12,1.43-0.38c0.41-0.26,0.69-0.67,0.88-1.27h-1.19c-0.05,0.14-0.17,0.29-0.36,0.43c-0.19,0.14-0.43,0.22-0.69,0.22
		c-0.38,0-0.67-0.1-0.88-0.29c-0.19-0.19-0.31-0.5-0.36-0.96h3.56C51.84,34.83,51.81,34.45,51.72,34.11z M48.25,34.38
		c0.02-0.1,0.02-0.22,0.07-0.33c0.05-0.12,0.09-0.22,0.19-0.33c0.07-0.1,0.19-0.19,0.33-0.26c0.14-0.07,0.33-0.12,0.55-0.12
		c0.33,0,0.57,0.1,0.74,0.26c0.17,0.17,0.29,0.43,0.31,0.79H48.25z"/>
	<rect x="35.71" y="30.79" class="st0" width="1.27" height="1.15"/>
	<rect x="35.71" y="32.51" class="st0" width="1.27" height="4.95"/>
	<path class="st0" d="M59.82,25.18c-0.38-0.5-1.03-0.79-1.86-0.79c-0.81,0-1.48,0.24-1.86,0.79c-0.38,0.5-0.62,1.12-0.62,1.82
		c0,0.72,0.21,1.34,0.62,1.82c0.38,0.5,1.03,0.76,1.86,0.76c0.81,0,1.48-0.24,1.86-0.76c0.38-0.5,0.62-1.12,0.62-1.82
		C60.46,26.33,60.25,25.7,59.82,25.18z M58.81,28.14c-0.21,0.24-0.5,0.38-0.86,0.38c-0.36,0-0.65-0.14-0.86-0.38
		c-0.21-0.24-0.29-0.64-0.29-1.12c0-0.5,0.09-0.86,0.29-1.1c0.21-0.24,0.5-0.38,0.86-0.38c0.36,0,0.64,0.14,0.86,0.38
		c0.22,0.24,0.29,0.65,0.29,1.1C59.1,27.47,59.03,27.85,58.81,28.14z"/>
	<path class="st0" d="M53.8,23.82v1.36c-0.14-0.22-0.31-0.38-0.57-0.55c-0.22-0.14-0.5-0.17-0.79-0.17c-0.65,0-1.15,0.24-1.55,0.72
		c-0.38,0.45-0.57,1.15-0.57,2.01c0,0.72,0.17,1.34,0.57,1.74c0.38,0.45,1.15,0.65,1.82,0.65c2.37,0,2.32-2.01,2.32-2.01l0.07-4.64
		C55.09,22.93,53.8,22.79,53.8,23.82z M53.61,28.14c-0.17,0.24-0.45,0.38-0.81,0.38s-0.64-0.14-0.79-0.38
		c-0.17-0.29-0.24-0.64-0.24-1.12c0-0.43,0.07-0.76,0.24-1.03c0.17-0.29,0.43-0.43,0.81-0.43c0.24,0,0.45,0.07,0.65,0.21
		c0.29,0.24,0.45,0.72,0.45,1.34C53.84,27.54,53.8,27.9,53.61,28.14z"/>
	<path class="st0" d="M48.42,26.35c-0.09,0.02-0.29,0.07-0.5,0.1l-0.43,0.02c-0.5,0.07-0.86,0.17-1.12,0.31
		c-0.45,0.24-0.69,0.72-0.69,1.29c0,0.45,0.14,0.81,0.43,1.08c0.29,0.24,0.64,0.36,1.1,0.38c2.8,0.1,2.77-1.48,2.77-1.79v-1.82
		c0.02-0.53-0.17-0.96-0.6-1.17c-0.43-0.22-0.88-0.31-1.43-0.31c-0.81,0-1.41,0.22-1.74,0.64c-0.22,0.29-0.31,0.62-0.36,1.03h1.22
		c0.02-0.17,0.1-0.31,0.17-0.43c0.14-0.14,0.36-0.22,0.65-0.22c0.29,0,0.45,0.02,0.62,0.1c0.14,0.07,0.21,0.21,0.21,0.43
		C48.71,26.16,48.61,26.28,48.42,26.35z M48.75,27.11l-0.02,0.43c0,0.43-0.14,0.72-0.36,0.88c-0.24,0.14-0.5,0.24-0.76,0.24
		c-0.17,0-0.31-0.02-0.43-0.14c-0.12-0.12-0.17-0.24-0.17-0.45c0-0.24,0.1-0.43,0.29-0.55c0.09-0.07,0.31-0.14,0.57-0.17l0.29-0.07
		c0.14-0.02,0.24-0.07,0.36-0.07C48.59,27.19,48.68,27.14,48.75,27.11z"/>
	<path class="st0" d="M45.24,27.69h-1.36c-0.02,0.24-0.1,0.45-0.24,0.62c-0.14,0.14-0.36,0.24-0.69,0.24
		c-0.43,0-0.76-0.22-0.88-0.62c-0.07-0.21-0.14-0.5-0.14-0.86c0-0.36,0.02-0.69,0.14-0.88c0.21-0.43,0.5-0.65,0.98-0.65
		c0.31,0,0.55,0.1,0.72,0.29c0.1,0.14,0.17,0.31,0.17,0.5h1.36c-0.07-0.69-0.31-1.19-0.72-1.43c-0.38-0.29-0.93-0.38-1.58-0.38
		c-0.76,0-1.36,0.22-1.79,0.69c-0.43,0.48-0.65,1.12-0.65,1.94c0,0.76,0.17,1.34,0.57,1.79c0.38,0.45,1,0.69,1.82,0.69
		c0.81,0,1.43-0.29,1.86-0.81C45.05,28.45,45.2,28.09,45.24,27.69z"/>
	<path class="st0" d="M38.84,29.5v-2.37c0-0.38,0.02-0.69,0.14-0.86c0.17-0.31,0.5-0.5,1.03-0.5c0.02,0,0.07,0,0.14,0
		c0.07,0,0.14,0,0.21,0.02v-1.29c-0.07,0-0.1,0-0.1,0c-0.02-0.05-0.02-0.05-0.07-0.05c-2.84,0-2.65,2.51-2.65,2.51v2.53H38.84z"/>
	<path class="st0" d="M36.57,25.35c-0.22-0.31-0.5-0.57-0.81-0.72c-0.31-0.14-0.72-0.21-1.15-0.21c-0.72,0-1.29,0.21-1.72,0.69
		c-0.43,0.45-0.69,1.1-0.69,1.94c0,0.88,0.24,1.55,0.76,1.93c0.5,0.38,1.08,0.62,1.72,0.62c0.79,0,1.41-0.24,1.82-0.72
		c0.24-0.24,0.38-0.5,0.43-0.76l-1.41,0.02c-0.02,0.07-0.1,0.14-0.17,0.17c-0.17,0.14-0.43,0.17-0.72,0.17
		c-0.29,0-0.5-0.02-0.69-0.17c-0.31-0.17-0.5-0.55-0.5-1h3.54c0-0.43,0-0.76-0.02-0.96C36.88,25.97,36.78,25.63,36.57,25.35z
		 M33.44,26.49c0.07-0.29,0.17-0.53,0.36-0.72c0.17-0.17,0.43-0.29,0.77-0.29c0.29,0,0.55,0.07,0.76,0.24
		c0.22,0.17,0.31,0.43,0.31,0.76H33.44z"/>
	<path class="st0" d="M29.59,24.41c-0.62,0-1.12,0.26-1.48,0.69c-0.36-0.45-0.86-0.69-1.48-0.69c-1.24,0-2.03,0.93-2.03,2.15v2.92
		h1.19v-2.94c0-0.53,0.36-0.88,0.86-0.88c0.79,0,0.86,0.6,0.86,0.88v2.94h1.2v-2.94c0-0.53,0.38-0.88,0.88-0.88
		c0.79,0,0.86,0.6,0.86,0.88v2.94h1.19l-0.02-2.92C31.62,25.3,30.88,24.41,29.59,24.41z"/>
	<path class="st0" d="M42.57,20.76c6.95,0,11.37-3.51,11.37-7.86c0-0.14,0-0.22,0-0.43c0-4.09-5.09-7.43-11.37-7.43
		s-11.37,3.34-11.37,7.43c0,0.1,0,0.41,0,0.43C31.19,17.25,35.64,20.76,42.57,20.76z M53.51,12.16c0-0.17-0.02-0.31-0.07-0.48
		c-2.46,0.53-4.3,1.31-4.75,1.53c-1.08-0.93-3.56-3.11-4.25-3.61c-0.38-0.29-0.65-0.45-0.88-0.5c-0.1-0.02-0.24-0.07-0.43-0.07
		c-0.17,0-0.36,0.02-0.55,0.1c-0.43,0.14-0.86,0.48-1.29,0.81l-0.02,0.02c-0.38,0.31-0.79,0.62-1.1,0.69
		c-0.14,0.02-0.26,0.05-0.41,0.05c-0.33,0-0.65-0.1-0.76-0.24c-0.02-0.02,0-0.07,0.05-0.12l0.96-1.03c0.74-0.74,1.43-1.43,3.06-1.48
		c0.02,0,0.05,0,0.07,0c1,0,2.01,0.45,2.13,0.5c0.96,0.45,1.91,0.69,2.89,0.69c1.03,0,2.08-0.26,3.17-0.76
		C52.61,9.36,53.41,10.7,53.51,12.16z M51.21,8.18c-0.08-0.06-0.16-0.13-0.23-0.19C51.05,8.05,51.13,8.11,51.21,8.18z M42.61,5.49
		c3.33,0,6.31,0.96,8.31,2.46c-0.98,0.43-1.88,0.62-2.79,0.62c-0.91,0-1.82-0.22-2.7-0.65c-0.05-0.02-1.15-0.55-2.32-0.55
		c-0.02,0-0.07,0-0.1,0c-1.36,0.02-2.13,0.5-2.63,0.93c-0.5,0-0.93,0.14-1.31,0.24c-0.33,0.1-0.65,0.17-0.93,0.17
		c-0.12,0-0.33,0-0.36,0c-0.33,0-1.96-0.4-3.27-0.91C36.52,6.39,39.4,5.49,42.61,5.49z M34.12,8.09c1.38,0.56,3.03,0.98,3.55,1.03
		c0.14,0,0.31,0.02,0.48,0.02c0.36,0,0.69-0.1,1.05-0.19c0.21-0.05,0.43-0.12,0.65-0.17c-0.07,0.07-0.12,0.12-0.19,0.19l-0.96,1.05
		c-0.07,0.07-0.24,0.29-0.14,0.53c0.05,0.1,0.14,0.19,0.26,0.29c0.24,0.14,0.65,0.26,1.03,0.26c0.14,0,0.29-0.02,0.41-0.05
		c0.41-0.1,0.84-0.43,1.27-0.79c0.36-0.29,0.86-0.64,1.24-0.76c0.12-0.02,0.24-0.05,0.36-0.05c0.02,0,0.07,0,0.1,0
		c0.26,0.02,0.5,0.12,0.96,0.45c0.79,0.6,4.3,3.66,4.32,3.68c0,0,0.21,0.19,0.21,0.53c0,0.17-0.12,0.33-0.29,0.45
		c-0.14,0.1-0.31,0.14-0.45,0.14c-0.24,0-0.41-0.12-0.41-0.12s-1.22-1.1-1.65-1.48c-0.07-0.07-0.14-0.12-0.21-0.12
		c-0.05,0-0.07,0.02-0.1,0.05c-0.07,0.1,0,0.22,0.1,0.29l1.41,1.41c0,0,0.17,0.17,0.19,0.38c0,0.24-0.1,0.43-0.33,0.57
		c-0.17,0.12-0.34,0.17-0.5,0.17c-0.22,0-0.36-0.1-0.41-0.12l-0.21-0.19c-0.36-0.36-0.74-0.74-1.03-0.96
		c-0.07-0.05-0.14-0.12-0.21-0.12c-0.02,0-0.07,0-0.1,0.05c-0.02,0.02-0.05,0.1,0.02,0.22c0.02,0.05,0.07,0.07,0.07,0.07l1.03,1.15
		c0,0,0.22,0.26,0.02,0.48l-0.05,0.05c-0.02,0.02-0.07,0.07-0.1,0.1c-0.17,0.14-0.41,0.17-0.5,0.17c-0.05,0-0.1,0-0.14,0
		c-0.1-0.02-0.17-0.05-0.21-0.1c-0.05-0.07-0.57-0.57-1-0.93c-0.05-0.05-0.12-0.1-0.19-0.1c-0.02,0-0.07,0.02-0.1,0.05
		c-0.07,0.1,0.05,0.24,0.1,0.29l0.88,0.96c0,0,0,0.02-0.02,0.07c-0.02,0.05-0.14,0.14-0.45,0.19c-0.05,0-0.07,0-0.12,0
		c-0.33,0-0.67-0.17-0.86-0.26c0.07-0.17,0.12-0.36,0.12-0.55c0-0.72-0.57-1.29-1.29-1.29c-0.02,0-0.02,0-0.05,0
		c0.02-0.33-0.02-0.96-0.67-1.22c-0.19-0.07-0.36-0.12-0.55-0.12c-0.14,0-0.26,0.02-0.41,0.07c-0.14-0.26-0.36-0.45-0.65-0.55
		c-0.17-0.05-0.31-0.07-0.48-0.07c-0.26,0-0.5,0.07-0.72,0.24c-0.21-0.26-0.53-0.41-0.86-0.41c-0.29,0-0.57,0.12-0.76,0.31
		c-0.26-0.22-1.34-0.88-4.23-1.55c-0.12-0.02-0.37-0.09-0.56-0.16C32.04,10.29,32.87,9.08,34.12,8.09z M39.44,15.57l-0.02-0.02
		h-0.02c-0.02,0-0.05,0-0.1,0.05c-0.14,0.1-0.29,0.14-0.43,0.14c-0.07,0-0.17-0.02-0.24-0.05c-0.67-0.26-0.62-0.88-0.57-1.07
		c0-0.05,0-0.07-0.02-0.1l-0.05-0.05l-0.05,0.05c-0.14,0.12-0.31,0.19-0.48,0.19c-0.38,0-0.69-0.31-0.69-0.69s0.31-0.69,0.69-0.69
		c0.34,0,0.65,0.26,0.69,0.6l0.02,0.19l0.09-0.17c0-0.02,0.29-0.45,0.81-0.43c0.1,0,0.19,0.02,0.31,0.05
		c0.41,0.12,0.48,0.5,0.48,0.64c0,0.1,0.07,0.1,0.07,0.1c0.02,0,0.07-0.02,0.07-0.05c0.07-0.07,0.24-0.21,0.5-0.21
		c0.12,0,0.24,0.02,0.38,0.1c0.65,0.29,0.36,1.1,0.36,1.12c-0.05,0.14-0.07,0.19,0,0.24h0.02h0.02c0.02,0,0.07,0,0.12-0.02
		c0.1-0.02,0.22-0.07,0.34-0.07c0.48,0,0.88,0.41,0.88,0.88c0.02,0.53-0.38,0.91-0.86,0.91c-0.48,0-0.86-0.38-0.88-0.86
		c0-0.05,0-0.14-0.1-0.14c-0.05,0-0.07,0.02-0.12,0.05c-0.1,0.1-0.24,0.19-0.43,0.19c-0.09,0-0.19-0.02-0.29-0.07
		c-0.5-0.22-0.53-0.55-0.5-0.69C39.46,15.62,39.46,15.6,39.44,15.57z M31.73,12.08c0.16,0.04,0.46,0.1,0.54,0.12
		c2.94,0.65,3.92,1.34,4.09,1.46c-0.05,0.14-0.07,0.29-0.07,0.43c0,0.62,0.5,1.1,1.1,1.1c0.07,0,0.14,0,0.22-0.02
		c0.1,0.45,0.38,0.79,0.84,0.96c0.14,0.05,0.26,0.07,0.38,0.07c0.07,0,0.17,0,0.26-0.02c0.07,0.22,0.26,0.48,0.69,0.65
		c0.14,0.07,0.29,0.1,0.43,0.1c0.12,0,0.24-0.02,0.33-0.07c0.19,0.48,0.67,0.81,1.19,0.81c0.36,0,0.69-0.14,0.93-0.41
		c0.22,0.12,0.65,0.33,1.1,0.33c0.07,0,0.12,0,0.17,0c0.45-0.05,0.65-0.24,0.74-0.36c0.02-0.02,0.02-0.05,0.05-0.07
		c0.1,0.02,0.22,0.05,0.36,0.05c0.24,0,0.48-0.07,0.72-0.26c0.24-0.17,0.41-0.41,0.41-0.62c0.07,0.02,0.17,0.02,0.24,0.02
		c0.24,0,0.5-0.07,0.74-0.24c0.45-0.29,0.53-0.69,0.53-0.93c0.07,0.02,0.17,0.02,0.24,0.02c0.24,0,0.48-0.07,0.69-0.21
		c0.29-0.19,0.45-0.45,0.48-0.76c0.02-0.21-0.05-0.43-0.14-0.62c0.76-0.33,2.49-0.96,4.54-1.43c0.01,0.1,0.02,0.21,0.02,0.31
		c0,3.85-4.9,6.98-10.92,6.98c-6.02,0-10.92-3.13-10.92-6.98C31.69,12.34,31.71,12.21,31.73,12.08z"/>
</g>
</svg>
