<?xml version="1.0" encoding="utf-8"?>
<!-- Generator: Adobe Illustrator 24.1.0, SVG Export Plug-In . SVG Version: 6.00 Build 0)  -->
<svg version="1.1" id="Capa_1" xmlns="http://www.w3.org/2000/svg" xmlns:xlink="http://www.w3.org/1999/xlink" x="0px" y="0px"
	 viewBox="0 0 85.04 42.52" style="enable-background:new 0 0 85.04 42.52;" xml:space="preserve">
<style type="text/css">
	.st0{fill:#FFFFFF;}
</style>
<path class="st0" d="M70.69,17.66c0,0-0.61-0.39-1.66-0.39h-6.7v3.25h5.38c1.05,0,1.78-0.21,1.78-0.21v3.21c0,0-0.75-0.28-1.81-0.28
	h-5.35v3.26c0,1.03,0.36,1.5,0.36,1.5h-6.68c0,0,0.43-0.48,0.43-1.5V15.98c0-1.03-0.43-1.48-0.43-1.48h14.68
	C70.69,14.5,70.69,17.66,70.69,17.66z M47.94,23.24h-4.87v3.26c0,1.03,0.38,1.52,0.38,1.52h-6.69c0,0,0.4-0.49,0.4-1.51V15.99
	c0-1.03-0.4-1.49-0.4-1.49h11.18c3.16,0,5.38,1.56,5.38,4.38S51.02,23.24,47.94,23.24 M32.74,15.97l-5.43,6.6v3.94
	c0,1.03,0.38,1.52,0.38,1.52h-6.69c0,0,0.39-0.5,0.39-1.52v-3.94l-5.37-6.53c-0.97-1.19-1.69-1.53-1.69-1.53h6.8
	c0,0,0.2,0.64,0.91,1.73l2.27,3.4c0,0.01,0.06,0,0.09,0l2.28-3.4c0.72-1.05,0.91-1.73,0.91-1.73h6.82
	C34.43,14.5,33.72,14.77,32.74,15.97 M44.98,17h-1.91v3.77h1.89c1.35,0,2.46-0.58,2.46-1.9C47.43,17.53,46.32,17,44.98,17"/>
<path class="st0" d="M70.69,17.66c0,0-0.61-0.39-1.66-0.39h-6.7v3.25h5.38c1.05,0,1.78-0.21,1.78-0.21v3.21c0,0-0.75-0.28-1.81-0.28
	h-5.35v3.26c0,1.03,0.36,1.5,0.36,1.5h-6.68c0,0,0.43-0.48,0.43-1.5V15.98c0-1.03-0.43-1.48-0.43-1.48h14.68
	C70.69,14.5,70.69,17.66,70.69,17.66z M47.94,23.24h-4.87v3.26c0,1.03,0.38,1.52,0.38,1.52h-6.69c0,0,0.4-0.49,0.4-1.51V15.99
	c0-1.03-0.4-1.49-0.4-1.49h11.18c3.16,0,5.38,1.56,5.38,4.38S51.02,23.24,47.94,23.24 M32.74,15.97l-5.43,6.6v3.94
	c0,1.03,0.38,1.52,0.38,1.52h-6.69c0,0,0.39-0.5,0.39-1.52v-3.94l-5.37-6.53c-0.97-1.19-1.69-1.53-1.69-1.53h6.8
	c0,0,0.2,0.64,0.91,1.73l2.27,3.4c0,0.01,0.06,0,0.09,0l2.28-3.4c0.72-1.05,0.91-1.73,0.91-1.73h6.82
	C34.43,14.5,33.72,14.77,32.74,15.97 M44.98,17h-1.91v3.77h1.89c1.35,0,2.46-0.58,2.46-1.9C47.43,17.53,46.32,17,44.98,17"/>
</svg>
